# xmcd CD database file
#
# Track frame offsets:
#	150
#	15232
#	24511
#	42485
#	58849
#	83081
#	100513
#	116380
#	132505
#	155955
#	175058
#	191116
#	203581
#	222098
#
# Disc length: 3283 seconds
#
# Revision: 0
# Processed by: cddbd v1.5.2PL0 Copyright (c) Steve Scherf et al.
# Submitted via: CDex 1.70beta2
#
DISCID=b80cd10e
DTITLE=Ludwig Seuss Band - Virginia Blues Connection
DYEAR=2012
DGENRE=Blues
TTITLE0=Toni's Boogie
TTITLE1=Helping Hand
TTITLE2=Don't start crying now
TTITLE3=Lead on me
TTITLE4=Stormy Monday
TTITLE5=Flip, Flop and Fly
TTITLE6=Little Lina
TTITLE7=I had my chance
TTITLE8=You gotta take sick
TTITLE9=Drive it home
TTITLE10=St. James Infirmary
TTITLE11=Messin' around
TTITLE12=Strange things happening
TTITLE13=Magic 8
EXTD=YEAR: 2012
EXTT0=
EXTT1=
EXTT2=
EXTT3=
EXTT4=
EXTT5=
EXTT6=
EXTT7=
EXTT8=
EXTT9=
EXTT10=
EXTT11=
EXTT12=
EXTT13=
PLAYORDER=
